<?xml version="1.0" encoding="UTF-8"?>
<svg version="1.1" xmlns="http://www.w3.org/2000/svg" width="300" height="250">
<path d="M0 0 C2.36098778 2.1075219 4.35696309 4.2883212 6 7 C6 7.66 6 8.32 6 9 C6.59167969 9.08636719 7.18335938 9.17273438 7.79296875 9.26171875 C13.32205056 10.24486707 16.40832138 11.39816177 20 16 C21.28317892 19.84953676 21.06643637 22.94738135 21 27 C19.02 27.33 17.04 27.66 15 28 C12.87491756 24.81237635 12.4979837 22.73487777 12 19 C11.113125 18.71125 10.22625 18.4225 9.3125 18.125 C8.219375 17.75375 7.12625 17.3825 6 17 C5.13375 16.773125 4.2675 16.54625 3.375 16.3125 C0.41013572 14.67402237 -0.44528141 12.61712308 -1.98828125 9.68359375 C-3.9360198 6.44237632 -6.43243604 5.39112707 -10.00390625 4.5 C-15.7571267 3.53946232 -20.85064728 4.14171998 -26 7 C-27.53712479 9.17367074 -27.53712479 9.17367074 -28 12 C-28.52583596 13.44336606 -29.06846618 14.88069026 -29.625 16.3125 C-30.07875 17.529375 -30.5325 18.74625 -31 20 C-31.66386719 20.01417969 -32.32773437 20.02835938 -33.01171875 20.04296875 C-37.55519408 20.28838275 -40.28880678 20.49200484 -44.0625 23.1875 C-46.278376 26.4040942 -47 28.09507112 -47 32 C-45.5500457 36.34986291 -44.85115325 38.4325645 -41 41 C-36.92509248 41.33957563 -35.46998729 41.31332486 -32 39 C-28.48275862 39.51724138 -28.48275862 39.51724138 -27 41 C-26.93941406 39.71222656 -26.87882812 38.42445313 -26.81640625 37.09765625 C-26.73201753 35.41925841 -26.6473687 33.74087364 -26.5625 32.0625 C-26.52318359 31.21236328 -26.48386719 30.36222656 -26.44335938 29.48632812 C-26.40146484 28.67744141 -26.35957031 27.86855469 -26.31640625 27.03515625 C-26.27974854 26.2862915 -26.24309082 25.53742676 -26.20532227 24.76586914 C-26 23 -26 23 -25 22 C-23.35 22 -21.7 22 -20 22 C-20 30.91 -20 39.82 -20 49 C-21.98 49.495 -21.98 49.495 -24 50 C-25.485 47.525 -25.485 47.525 -27 45 C-27.495 45.45375 -27.99 45.9075 -28.5 46.375 C-31.86240576 48.56056374 -35.00475338 49.82415288 -39 50 C-45.40212618 48.47415993 -49.33440355 45.33177666 -53 40 C-55.49507647 35.66226987 -55.64602243 31.90977047 -55 27 C-53.19153894 21.24580572 -50.16503977 17.21596816 -45 14 C-41.99617931 13.34122427 -39.07085947 13.07506545 -36 13 C-36 12.175 -36 11.35 -36 10.5 C-34.35312339 4.73593187 -30.12735988 0.84575554 -25.0078125 -2.17578125 C-16.49793152 -5.78137339 -7.89248382 -4.60728751 0 0 Z " fill="#5085B6" transform="translate(92,90)"/>
<path d="M0 0 C13.33146067 -0.37031835 13.33146067 -0.37031835 16.390625 1.32421875 C18 3 18 3 19 6 C19.804375 5.01 20.60875 4.02 21.4375 3 C24.04923499 0.40061364 25.80551871 -0.50621412 29.5 -0.6875 C34.38566977 -0.38162897 36.65102527 1.56515412 40 5 C40.66 4.175 41.32 3.35 42 2.5 C45.39035809 -0.32529841 46.81259382 -0.72376435 51.06640625 -0.41015625 C54.36385138 0.28930181 55.86439595 1.41138903 58 4 C58.69926312 6.73443189 58.8576733 9.15346598 59 12 C52.565 12.495 52.565 12.495 46 13 C47.0595877 14.28322547 47.0595877 14.28322547 49.5 14.125 C51.9404123 14.28322547 51.9404123 14.28322547 53 13 C54.66617115 12.95936168 56.33388095 12.957279 58 13 C58 16 58 16 56 18.6875 C52.84690189 21.11801313 50.98775595 21.73459711 47.00390625 21.5078125 C43.47878389 20.61450664 41.53938401 18.53938401 39 16 C38.319375 16.639375 37.63875 17.27875 36.9375 17.9375 C33.40171712 20.42007096 31.31286678 21 27 21 C21.53164557 18.06329114 21.53164557 18.06329114 20 15 C19.67 16.65 19.34 18.3 19 20 C16.69 20 14.38 20 12 20 C12 15.38 12 10.76 12 6 C10.35 6 8.7 6 7 6 C6.67 10.62 6.34 15.24 6 20 C4.02 20 2.04 20 0 20 C0 13.4 0 6.8 0 0 Z M47 5 C46.67 5.66 46.34 6.32 46 7 C47.98 7 49.96 7 52 7 C51.67 6.34 51.34 5.68 51 5 C49.68 5 48.36 5 47 5 Z M26 7 C25.74994614 9.95817107 25.74994614 9.95817107 26 13 C26.66 13.66 27.32 14.32 28 15 C30.60280568 14.67958603 30.60280568 14.67958603 33 14 C33 13.34 33 12.68 33 12 C34.98 12 36.96 12 39 12 C39 10.68 39 9.36 39 8 C32.29927749 5.39927076 32.29927749 5.39927076 26 7 Z " fill="#2E4868" transform="translate(204,119)"/>
<path d="M0 0 C13 0 13 0 18 4 C18.3125 7.5625 18.3125 7.5625 18 11 C18 11.99 18 12.98 18 14 C18.33 14.33 18.66 14.66 19 15 C19.5885444 22.18024172 19.5885444 22.18024172 17.25 25.4375 C11.50256465 29.42877455 7.35658146 27.66878013 0 27 C0 18.09 0 9.18 0 0 Z M6 6 C6 7.65 6 9.3 6 11 C7.65 11 9.3 11 11 11 C11.33 9.35 11.66 7.7 12 6 C10.02 6 8.04 6 6 6 Z M6 16 C6 17.65 6 19.3 6 21 C8.31 21 10.62 21 13 21 C13 19.68 13 18.36 13 17 C10.69 16.67 8.38 16.34 6 16 Z " fill="#213F64" transform="translate(137,112)"/>
<path d="M0 0 C1.98 0 3.96 0 6 0 C6 8.91 6 17.82 6 27 C3.69 27 1.38 27 -1 27 C-2.175625 27.2475 -3.35125 27.495 -4.5625 27.75 C-9.01178507 28.07358437 -10.666299 26.857458 -14 24 C-15.52199443 19.43401671 -15.74716734 15.60107286 -13.6875 11.1875 C-12 9 -12 9 -9 7 C-6.95703125 6.8046875 -6.95703125 6.8046875 -4.8125 6.875 C-2.9253125 6.936875 -2.9253125 6.936875 -1 7 C-0.67 4.69 -0.34 2.38 0 0 Z M-5 12 C-6.32 12.99 -7.64 13.98 -9 15 C-8.67 16.98 -8.34 18.96 -8 21 C-5.65466049 21.76956136 -5.65466049 21.76956136 -3 22 C-1 21 -1 21 0 19 C0.08024658 16.40110217 0.08024658 16.40110217 -1 14 C-2.96758273 12.63979849 -2.96758273 12.63979849 -5 12 Z " fill="#598AB6" transform="translate(129,112)"/>
<path d="M0 0 C0.76183594 -0.02835937 1.52367187 -0.05671875 2.30859375 -0.0859375 C5.59136038 0.58540819 6.65304924 1.62504608 8.5625 4.375 C8.8531124 7.26949949 8.94436045 9.75449935 8.8125 12.625 C8.79445312 13.37007812 8.77640625 14.11515625 8.7578125 14.8828125 C8.71085649 16.71409701 8.63911652 18.54471649 8.5625 20.375 C-3.22219617 22.11768567 -3.22219617 22.11768567 -7.8125 19.3125 C-9.80208906 15.71593516 -9.53584809 14.26146248 -8.4375 10.375 C-8.4375 9.385 -8.4375 8.395 -8.4375 7.375 C-8.125 4.8125 -8.125 4.8125 -7.4375 2.375 C-4.37702368 0.33468245 -3.50254006 0.05906476 0 0 Z M-1.4375 5.375 C-1.7675 6.035 -2.0975 6.695 -2.4375 7.375 C-0.7875 7.375 0.8625 7.375 2.5625 7.375 C2.2325 6.715 1.9025 6.055 1.5625 5.375 C0.5725 5.375 -0.4175 5.375 -1.4375 5.375 Z M-2.4375 12.375 C-2.4375 13.365 -2.4375 14.355 -2.4375 15.375 C-0.7875 15.045 0.8625 14.715 2.5625 14.375 C2.5625 13.715 2.5625 13.055 2.5625 12.375 C0.9125 12.375 -0.7375 12.375 -2.4375 12.375 Z " fill="#254062" transform="translate(166.4375,118.625)"/>
<path d="M0 0 C0.76183594 -0.01933594 1.52367187 -0.03867188 2.30859375 -0.05859375 C5.57287553 0.65988768 6.65387483 1.6930435 8.5625 4.4375 C8.8531124 7.33199949 8.94436045 9.81699935 8.8125 12.6875 C8.79445312 13.43257812 8.77640625 14.17765625 8.7578125 14.9453125 C8.71085649 16.77659701 8.63911652 18.60721649 8.5625 20.4375 C7.63566406 20.42332031 6.70882812 20.40914062 5.75390625 20.39453125 C2.55845896 20.32802531 2.55845896 20.32802531 -0.5 21.125 C-3.4375 21.4375 -3.4375 21.4375 -6.3125 20.5 C-8.4375 18.4375 -8.4375 18.4375 -8.74609375 16.55859375 C-8.74989193 14.49618419 -8.62377289 12.49064113 -8.4375 10.4375 C-8.4375 9.4475 -8.4375 8.4575 -8.4375 7.4375 C-7.62928883 2.26494853 -5.26654144 0.00888118 0 0 Z M-1.4375 5.4375 C-1.7675 6.0975 -2.0975 6.7575 -2.4375 7.4375 C-0.7875 7.4375 0.8625 7.4375 2.5625 7.4375 C2.2325 6.7775 1.9025 6.1175 1.5625 5.4375 C0.5725 5.4375 -0.4175 5.4375 -1.4375 5.4375 Z M-2.4375 12.4375 C-2.4375 13.4275 -2.4375 14.4175 -2.4375 15.4375 C-0.7875 15.1075 0.8625 14.7775 2.5625 14.4375 C2.5625 13.7775 2.5625 13.1175 2.5625 12.4375 C0.9125 12.4375 -0.7375 12.4375 -2.4375 12.4375 Z " fill="#264162" transform="translate(193.4375,118.5625)"/>
<path d="M0 0 C13.33146067 -0.37031835 13.33146067 -0.37031835 16.390625 1.32421875 C19.70119869 4.77139378 19.10392914 8.67172384 19.0625 13.1875 C19.05347656 14.45980469 19.04445312 15.73210937 19.03515625 17.04296875 C19.02355469 18.01878906 19.01195312 18.99460938 19 20 C16.69 20 14.38 20 12 20 C12 15.38 12 10.76 12 6 C10.35 6 8.7 6 7 6 C6.67 10.62 6.34 15.24 6 20 C4.02 20 2.04 20 0 20 C0 13.4 0 6.8 0 0 Z " fill="#274060" transform="translate(204,119)"/>
<path d="M0 0 C2.8100346 1.79363911 4.50940468 3.01880935 6 6 C6.45487581 10.54875813 6.71689456 13.67392638 3.9375 17.4375 C0.43901415 20.48937063 -1.3945905 21 -6 21 C-8.99719216 20.25070196 -10.53499781 19.44839497 -12.75 17.3125 C-14.47557283 14.12019026 -14.87499129 11.62525268 -15 8 C-13.86138489 4.82386312 -12.94016354 2.76605918 -10.3125 0.625 C-6.83798354 -0.3140585 -3.53864272 -0.58977379 0 0 Z M-7 6 C-8.29042763 8.26601865 -8.29042763 8.26601865 -9 11 C-7.73647948 13.32511472 -7.73647948 13.32511472 -6 15 C-2.70924004 14.62095792 -2.70924004 14.62095792 0 13 C0.16666667 10 0.16666667 10 0 7 C-1.12534105 5.64381501 -1.12534105 5.64381501 -4.0625 5.9375 C-5.031875 5.958125 -6.00125 5.97875 -7 6 Z " fill="#D0518B" transform="translate(88,119)"/>
<path d="M0 0 C1.98 0 3.96 0 6 0 C6.33 4.62 6.66 9.24 7 14 C7.99 14 8.98 14 10 14 C11.35091528 11.29816945 11.33858058 8.88191794 11.5625 5.875 C11.64628906 4.77929688 11.73007813 3.68359375 11.81640625 2.5546875 C11.87699219 1.71164063 11.93757813 0.86859375 12 0 C13.98 0 15.96 0 18 0 C18 6.6 18 13.2 18 20 C14 21 14 21 11 20 C10.21625 20.20625 9.4325 20.4125 8.625 20.625 C6 21 6 21 3.25 19.6875 C1 18 1 18 0 16 C-0.07181821 13.28239892 -0.09299506 10.59140612 -0.0625 7.875 C-0.05798828 7.12089844 -0.05347656 6.36679688 -0.04882812 5.58984375 C-0.03703499 3.72652873 -0.01909942 1.86325445 0 0 Z " fill="#4E88BB" transform="translate(95,119)"/>
<path d="M0 0 C2.5 0.125 2.5 0.125 3.5 1.125 C3.58748207 3.05167507 3.60697334 4.98151861 3.59765625 6.91015625 C3.59443359 8.07998047 3.59121094 9.24980469 3.58789062 10.45507812 C3.57951172 11.68677734 3.57113281 12.91847656 3.5625 14.1875 C3.55798828 15.42306641 3.55347656 16.65863281 3.54882812 17.93164062 C3.53699608 20.99614117 3.52051173 24.06054721 3.5 27.125 C1.50045254 27.16754356 -0.50041636 27.16580783 -2.5 27.125 C-4.24545605 25.37954395 -3.6302316 22.96375783 -3.6328125 20.59375 C-3.63410156 19.47355469 -3.63539063 18.35335937 -3.63671875 17.19921875 C-3.63285156 16.01972656 -3.62898437 14.84023437 -3.625 13.625 C-3.62886719 12.44550781 -3.63273438 11.26601562 -3.63671875 10.05078125 C-3.63542969 8.93058594 -3.63414062 7.81039062 -3.6328125 6.65625 C-3.63168457 5.62048828 -3.63055664 4.58472656 -3.62939453 3.51757812 C-3.45137181 0.22583731 -3.30058218 0.16502911 0 0 Z " fill="#314B6D" transform="translate(180.5,111.875)"/>
<path d="M0 0 C0.66 0 1.32 0 2 0 C3.25248502 2.50497004 3.11374406 4.20853274 3.09765625 7.0078125 C3.09443359 7.99394531 3.09121094 8.98007813 3.08789062 9.99609375 C3.07951172 11.02863281 3.07113281 12.06117187 3.0625 13.125 C3.05798828 14.16527344 3.05347656 15.20554688 3.04882812 16.27734375 C3.03701952 18.85161962 3.02055075 21.42578146 3 24 C-0.68359814 24.81827927 -3.13683814 24.99513062 -6.8125 24.0625 C-7.60269531 23.86785156 -8.39289063 23.67320312 -9.20703125 23.47265625 C-9.79871094 23.31667969 -10.39039062 23.16070312 -11 23 C-11 22.34 -11 21.68 -11 21 C-12.32 20.34 -13.64 19.68 -15 19 C-14.67 16.69 -14.34 14.38 -14 12 C-13.01 12 -12.02 12 -11 12 C-11 14.64 -11 17.28 -11 20 C-8.03 20 -5.06 20 -2 20 C-2 17.03 -2 14.06 -2 11 C-2.66 10.67 -3.32 10.34 -4 10 C-4 9.34 -4 8.68 -4 8 C-2.68 8 -1.36 8 0 8 C0 5.36 0 2.72 0 0 Z " fill="#4686C0" transform="translate(131,114)"/>
<path d="M0 0 C13 0 13 0 18 4 C18.375 7.6875 18.375 7.6875 18 11 C17 12 17 12 14.4375 12.0625 C13.633125 12.041875 12.82875 12.02125 12 12 C12 10.02 12 8.04 12 6 C9.69 5.67 7.38 5.34 5 5 C5.33 4.34 5.66 3.68 6 3 C4.35 2.67 2.7 2.34 1 2 C1 9.92 1 17.84 1 26 C2.32 26.33 3.64 26.66 5 27 C3.35 27 1.7 27 0 27 C0 18.09 0 9.18 0 0 Z " fill="#253D5D" transform="translate(137,112)"/>
<path d="M0 0 C1.21236328 0.02707031 1.21236328 0.02707031 2.44921875 0.0546875 C3.37154297 0.08949219 3.37154297 0.08949219 4.3125 0.125 C3.9825 1.115 3.6525 2.105 3.3125 3.125 C3.9725 3.125 4.6325 3.125 5.3125 3.125 C4.3125 6.125 4.3125 6.125 3.3125 8.125 C2.3225 7.795 1.3325 7.465 0.3125 7.125 C0.6425 6.795 0.9725 6.465 1.3125 6.125 C0.3225 6.125 -0.6675 6.125 -1.6875 6.125 C-1.3575 7.115 -1.0275 8.105 -0.6875 9.125 C0.9625 9.455 2.6125 9.785 4.3125 10.125 C4.3125 10.455 4.3125 10.785 4.3125 11.125 C1.0125 11.455 -2.2875 11.785 -5.6875 12.125 C-7.64198191 9.38872532 -8.7213568 7.85292114 -8.5625 4.4375 C-6.93288847 0.13066952 -4.13674621 -0.11990569 0 0 Z " fill="#274365" transform="translate(166.6875,118.875)"/>
<path d="M0 0 C1.98 0.495 1.98 0.495 4 1 C4 9.25 4 17.5 4 26 C3.01 26 2.02 26 1 26 C0.80467039 24.2300132 0.61901118 22.45895721 0.4375 20.6875 C0.33308594 19.70136719 0.22867188 18.71523437 0.12109375 17.69921875 C0 15 0 15 1 12 C0.34 12 -0.32 12 -1 12 C-1.02687279 10.18757948 -1.04633715 8.37504767 -1.0625 6.5625 C-1.07410156 5.55316406 -1.08570312 4.54382813 -1.09765625 3.50390625 C-1 1 -1 1 0 0 Z " fill="#598FC1" transform="translate(67,112)"/>
<path d="M0 0 C0.33 0.99 0.66 1.98 1 3 C1.99 3.33 2.98 3.66 4 4 C4 5.32 4 6.64 4 8 C10.27 8 16.54 8 23 8 C22.67 9.65 22.34 11.3 22 13 C20.2709226 13.02725341 18.54171824 13.04650987 16.8125 13.0625 C15.36810547 13.07990234 15.36810547 13.07990234 13.89453125 13.09765625 C11.14423487 13.00486622 8.67520409 12.62111685 6 12 C6 11.34 6 10.68 6 10 C5.401875 9.938125 4.80375 9.87625 4.1875 9.8125 C2 9 2 9 0.1875 6.6875 C-1 4 -1 4 -0.6875 1.6875 C-0.460625 1.130625 -0.23375 0.57375 0 0 Z " fill="#4687C2" transform="translate(41,124)"/>
<path d="M0 0 C1.65 0 3.3 0 5 0 C3.68 0.33 2.36 0.66 1 1 C1 2.65 1 4.3 1 6 C2.98 5.67 4.96 5.34 7 5 C7 5.66 7 6.32 7 7 C7.78375 7.12375 8.5675 7.2475 9.375 7.375 C12 8 12 8 14 10 C14.23046875 11.875 14.23046875 11.875 14.1875 14 C14.17783203 15.051875 14.17783203 15.051875 14.16796875 16.125 C14 18 14 18 13 20 C12.34 20 11.68 20 11 20 C11.33 18.02 11.66 16.04 12 14 C10.68 14.33 9.36 14.66 8 15 C8 14.01 8 13.02 8 12 C6.02 12 4.04 12 2 12 C1.67 11.34 1.34 10.68 1 10 C1.66 9.34 2.32 8.68 3 8 C2.01 7.67 1.02 7.34 0 7 C0 4.69 0 2.38 0 0 Z " fill="#2A4464" transform="translate(142,117)"/>
<path d="M0 0 C0.99 0 1.98 0 3 0 C3.33 2.31 3.66 4.62 4 7 C4.763125 6.79375 5.52625 6.5875 6.3125 6.375 C9 6 9 6 12 8 C11.67 9.32 11.34 10.64 11 12 C10.67 11.01 10.34 10.02 10 9 C8.9171875 9.495 8.9171875 9.495 7.8125 10 C4.98302573 11.00603529 2.97104534 11.16977402 0 11 C-2.21538462 4.6 -2.21538462 4.6 -1.125 1.5625 C-0.75375 1.046875 -0.3825 0.53125 0 0 Z " fill="#4782B7" transform="translate(94,95)"/>
<path d="M0 0 C-1.5577308 3.82352106 -3.91595258 6.29205593 -7 9 C-7.99 9 -8.98 9 -10 9 C-10.33 9.66 -10.66 10.32 -11 11 C-11.8125 8.3125 -11.8125 8.3125 -12 5 C-8.55194572 0.04342198 -5.87829674 -0.5763036 0 0 Z " fill="#223F63" transform="translate(256,119)"/>
<path d="M0 0 C1.2065625 0.0309375 1.2065625 0.0309375 2.4375 0.0625 C2.4375 0.7225 2.4375 1.3825 2.4375 2.0625 C1.1175 2.0625 -0.2025 2.0625 -1.5625 2.0625 C-1.5625 9.9825 -1.5625 17.9025 -1.5625 26.0625 C-2.2225 26.0625 -2.8825 26.0625 -3.5625 26.0625 C-3.59136751 21.91668113 -3.60925327 17.77088784 -3.625 13.625 C-3.63337891 12.44099609 -3.64175781 11.25699219 -3.65039062 10.03710938 C-3.65361328 8.91240234 -3.65683594 7.78769531 -3.66015625 6.62890625 C-3.66539307 5.58677979 -3.67062988 4.54465332 -3.67602539 3.47094727 C-3.51840588 0.12704092 -3.3607265 0.08196894 0 0 Z " fill="#22354F" transform="translate(180.5625,111.9375)"/>
<path d="M0 0 C1.1446875 0.3403125 1.1446875 0.3403125 2.3125 0.6875 C2.6425 2.3375 2.9725 3.9875 3.3125 5.6875 C1.9925 6.0175 0.6725 6.3475 -0.6875 6.6875 C-1.0175 8.3375 -1.3475 9.9875 -1.6875 11.6875 C-2.30625 11.048125 -2.925 10.40875 -3.5625 9.75 C-5.51347612 7.64866416 -5.51347612 7.64866416 -7.6875 6.6875 C-4.45731707 -0.51829268 -4.45731707 -0.51829268 0 0 Z " fill="#324C6D" transform="translate(231.6875,119.3125)"/>
<path d="M0 0 C4.45768233 -0.43702768 6.34650802 -0.51445113 9.9375 2.3125 C12 5 12 5 12 8 C9.1875 8.3125 9.1875 8.3125 6 8 C4.11400657 5.61107499 3 4.08148442 3 1 C1.68 1.33 0.36 1.66 -1 2 C-0.67 1.34 -0.34 0.68 0 0 Z " fill="#283F5F" transform="translate(231,119)"/>
<path d="M0 0 C0.598125 0.226875 1.19625 0.45375 1.8125 0.6875 C1.1525 1.3475 0.4925 2.0075 -0.1875 2.6875 C1.1325 3.3475 2.4525 4.0075 3.8125 4.6875 C2.8225 5.0175 1.8325 5.3475 0.8125 5.6875 C3.2875 6.6775 3.2875 6.6775 5.8125 7.6875 C5.8125 8.0175 5.8125 8.3475 5.8125 8.6875 C-3.1875 8.6875 -3.1875 8.6875 -6.1875 6.6875 C-5.78066505 4.32785727 -5.28935661 2.82815912 -3.875 0.875 C-2.1875 -0.3125 -2.1875 -0.3125 0 0 Z " fill="#3C526F" transform="translate(191.1875,119.3125)"/>
<path d="M0 0 C1.65 1.65 3.3 3.3 5 5 C4.01 5.66 3.02 6.32 2 7 C2.33 8.98 2.66 10.96 3 13 C2.01 12.67 1.02 12.34 0 12 C-0.28875 11.401875 -0.5775 10.80375 -0.875 10.1875 C-2.35537318 7.30899659 -4.42278571 5.89900001 -7 4 C-5.35 4 -3.7 4 -2 4 C-1.67 3.01 -1.34 2.02 -1 1 C-0.67 0.67 -0.34 0.34 0 0 Z " fill="#568AB9" transform="translate(91,90)"/>
<path d="M0 0 C0.99 0.33 1.98 0.66 3 1 C3 1.66 3 2.32 3 3 C4.65 3 6.3 3 8 3 C8.33 3.66 8.66 4.32 9 5 C7.02 5.33 5.04 5.66 3 6 C2.67 7.98 2.34 9.96 2 12 C-1.09411467 10.45294267 -1.71558965 8.11928228 -3 5 C-2.8125 2.6875 -2.8125 2.6875 -2 1 C-1.34 0.67 -0.68 0.34 0 0 Z " fill="#C95C90" transform="translate(78,120)"/>
<path d="M0 0 C0.99 0.33 1.98 0.66 3 1 C2.67 3.97 2.34 6.94 2 10 C-0.64 10 -3.28 10 -6 10 C-5.67 9.01 -5.34 8.02 -5 7 C-4.34 7 -3.68 7 -3 7 C-2.87625 6.030625 -2.7525 5.06125 -2.625 4.0625 C-2.41875 3.051875 -2.2125 2.04125 -2 1 C-1.34 0.67 -0.68 0.34 0 0 Z " fill="#4586C0" transform="translate(60,98)"/>
<path d="M0 0 C-0.39803561 2.88575819 -0.79009069 3.82189513 -3.0625 5.75 C-3.701875 6.1625 -4.34125 6.575 -5 7 C-7.66666667 5.66666667 -10.33333333 4.33333333 -13 3 C-13 2.67 -13 2.34 -13 2 C-8.46298506 0.54815522 -4.81938524 -0.23509196 0 0 Z " fill="#2F4764" transform="translate(243,132)"/>
<path d="M0 0 C1.98 0 3.96 0 6 0 C6.33 4.62 6.66 9.24 7 14 C7.99 14.33 8.98 14.66 10 15 C10 15.66 10 16.32 10 17 C5.125 16.125 5.125 16.125 4 15 C3.92741054 12.81360547 3.91626217 10.62499611 3.9375 8.4375 C3.94652344 7.23996094 3.95554687 6.04242188 3.96484375 4.80859375 C3.97644531 3.88175781 3.98804687 2.95492187 4 2 C2.68 2 1.36 2 0 2 C0 1.34 0 0.68 0 0 Z " fill="#497BA8" transform="translate(95,119)"/>
<path d="M0 0 C2.5 1.3125 2.5 1.3125 5 3 C5 3.99 5 4.98 5 6 C4.01 5.67 3.02 5.34 2 5 C1.67 6.32 1.34 7.64 1 9 C-1.64 9 -4.28 9 -7 9 C-7 8.34 -7 7.68 -7 7 C-5.02 6.67 -3.04 6.34 -1 6 C-1.99 5.34 -2.98 4.68 -4 4 C-2.68 2.68 -1.36 1.36 0 0 Z " fill="#455C79" transform="translate(256,119)"/>
<path d="M0 0 C0.33 0.66 0.66 1.32 1 2 C3.32156597 2.40729228 5.6568787 2.74438677 8 3 C8 3.66 8 4.32 8 5 C9.65 5.33 11.3 5.66 13 6 C13 6.33 13 6.66 13 7 C9.7 7.33 6.4 7.66 3 8 C0 3.375 0 3.375 0 0 Z " fill="#3F5876" transform="translate(158,123)"/>
<path d="M0 0 C1.65 0 3.3 0 5 0 C3.68 0.33 2.36 0.66 1 1 C1 2.65 1 4.3 1 6 C2.98 5.67 4.96 5.34 7 5 C6.67 6.65 6.34 8.3 6 10 C6.66 10.33 7.32 10.66 8 11 C5.625 11.625 5.625 11.625 3 12 C2.34 11.34 1.68 10.68 1 10 C1.66 9.34 2.32 8.68 3 8 C2.01 7.67 1.02 7.34 0 7 C0 4.69 0 2.38 0 0 Z " fill="#415A79" transform="translate(142,117)"/>
<path d="M0 0 C0.66 0.33 1.32 0.66 2 1 C2 4.3 2 7.6 2 11 C2.66 11.33 3.32 11.66 4 12 C2.35 11.67 0.7 11.34 -1 11 C-1.02688151 9.35425434 -1.04634123 7.70838587 -1.0625 6.0625 C-1.07410156 5.14597656 -1.08570313 4.22945312 -1.09765625 3.28515625 C-1 1 -1 1 0 0 Z " fill="#254469" transform="translate(219,127)"/>
<path d="M0 0 C1.98 0 3.96 0 6 0 C6 2.64 6 5.28 6 8 C5.34 8 4.68 8 4 8 C4 6.02 4 4.04 4 2 C3.01 2 2.02 2 1 2 C1 5.3 1 8.6 1 12 C0.67 12 0.34 12 0 12 C0 8.04 0 4.08 0 0 Z " fill="#4877A2" transform="translate(107,119)"/>
<path d="M0 0 C6.625 -0.25 6.625 -0.25 10 2 C9.67 3.32 9.34 4.64 9 6 C8.67 5.01 8.34 4.02 8 3 C7.01 3.495 7.01 3.495 6 4 C4.00039988 4.039992 1.99952758 4.04346799 0 4 C0 2.68 0 1.36 0 0 Z " fill="#4487C4" transform="translate(96,101)"/>
<path d="M0 0 C0.33 0.99 0.66 1.98 1 3 C0.01 4.485 0.01 4.485 -1 6 C-0.34 6 0.32 6 1 6 C1 6.66 1 7.32 1 8 C-2.37097383 9.49821059 -4.20442119 10 -8 10 C-8 9.34 -8 8.68 -8 8 C-6.35 8 -4.7 8 -3 8 C-3 7.34 -3 6.68 -3 6 C-3.66 5.67 -4.32 5.34 -5 5 C-3.35 3.35 -1.7 1.7 0 0 Z " fill="#243B5A" transform="translate(170,130)"/>
<path d="M0 0 C-0.33 0.66 -0.66 1.32 -1 2 C-3.36328125 2.66796875 -3.36328125 2.66796875 -6.3125 3.1875 C-7.27800781 3.36667969 -8.24351563 3.54585938 -9.23828125 3.73046875 C-11.85407018 3.98575791 -13.53351909 3.82606605 -16 3 C-10.28264895 0.54970669 -6.20970773 -0.33266291 0 0 Z " fill="#5F8AB4" transform="translate(81,86)"/>
<path d="M0 0 C1.9375 0.1875 1.9375 0.1875 4 1 C5.25 3.0625 5.25 3.0625 6 5 C5.01 5.495 5.01 5.495 4 6 C4 5.01 4 4.02 4 3 C3.505 3.165 3.01 3.33 2.5 3.5 C-1.03444089 4.20688818 -4.39690701 4.06005155 -8 4 C-8 3.67 -8 3.34 -8 3 C-6.865625 2.690625 -5.73125 2.38125 -4.5625 2.0625 C-1.21224901 1.37075469 -1.21224901 1.37075469 0 0 Z " fill="#4A7EAD" transform="translate(60,129)"/>
<path d="M0 0 C0.7734375 0.495 0.7734375 0.495 1.5625 1 C4.78026512 2.32010877 7.5570528 2.13242105 11 2 C10.67 2.66 10.34 3.32 10 4 C8.8553125 3.9690625 8.8553125 3.9690625 7.6875 3.9375 C4.89814214 3.87057159 4.89814214 3.87057159 2 5 C1.34 4.67 0.68 4.34 0 4 C0 4.99 0 5.98 0 7 C-0.66 7 -1.32 7 -2 7 C-1.125 1.125 -1.125 1.125 0 0 Z " fill="#2E4664" transform="translate(159,128)"/>
<path d="M0 0 C0.33 0 0.66 0 1 0 C1 4.95 1 9.9 1 15 C0.34 15 -0.32 15 -1 15 C-2.51708428 4.44191344 -2.51708428 4.44191344 0 0 Z " fill="#4688C3" transform="translate(69,122)"/>
<path d="M0 0 C1.21236328 0.02707031 1.21236328 0.02707031 2.44921875 0.0546875 C3.37154297 0.08949219 3.37154297 0.08949219 4.3125 0.125 C3.9825 0.785 3.6525 1.445 3.3125 2.125 C0.9864143 2.50563221 -1.34805264 2.83769945 -3.6875 3.125 C-4.6775 3.62 -4.6775 3.62 -5.6875 4.125 C-6.3475 3.465 -7.0075 2.805 -7.6875 2.125 C-4.48369983 -0.01086678 -3.66810033 -0.10632175 0 0 Z " fill="#344B69" transform="translate(166.6875,118.875)"/>
<path d="M0 0 C4.62 0 9.24 0 14 0 C14 0.66 14 1.32 14 2 C10.59598052 3.13732426 8.22543336 2.83989957 4.75 2.0625 C3.85796875 1.86785156 2.9659375 1.67320312 2.046875 1.47265625 C1.37140625 1.31667969 0.6959375 1.16070312 0 1 C0 0.67 0 0.34 0 0 Z " fill="#324B6A" transform="translate(138,137)"/>
<path d="M0 0 C0.93065133 2.60582371 1.14917407 3.64198224 0.0625 6.25 C-0.4634375 7.11625 -0.4634375 7.11625 -1 8 C-2.65 8 -4.3 8 -6 8 C-4.26440562 4.942048 -2.61527381 2.36620011 0 0 Z " fill="#E04C8D" transform="translate(91,130)"/>
<path d="M0 0 C0.66 0 1.32 0 2 0 C2.33 1.98 2.66 3.96 3 6 C2.01 6 1.02 6 0 6 C-0.33 6.99 -0.66 7.98 -1 9 C-1.33 6.69 -1.66 4.38 -2 2 C-1.34 2 -0.68 2 0 2 C0 1.34 0 0.68 0 0 Z " fill="#4588C3" transform="translate(40,114)"/>
<path d="M0 0 C8.35010941 1.33041575 8.35010941 1.33041575 11.0625 4.125 C11.371875 4.74375 11.68125 5.3625 12 6 C11.319375 5.690625 10.63875 5.38125 9.9375 5.0625 C6.63034088 3.86629351 3.48454122 3.40994603 0 3 C0 2.01 0 1.02 0 0 Z " fill="#5382AE" transform="translate(98,99)"/>
<path d="M0 0 C0 0.99 0 1.98 0 3 C-2.375 4.5625 -2.375 4.5625 -5 6 C-5.66 6.66 -6.32 7.32 -7 8 C-7 7.34 -7 6.68 -7 6 C-7.66 5.67 -8.32 5.34 -9 5 C-6.47043472 1.9083091 -3.77545388 1.09068668 0 0 Z " fill="#508DC4" transform="translate(81,86)"/>
<path d="M0 0 C1.74627478 2.61941217 2.38722388 4.03824877 3 7 C1.02 7.33 -0.96 7.66 -3 8 C-3.33 7.34 -3.66 6.68 -4 6 C-2.68 5.34 -1.36 4.68 0 4 C0 2.68 0 1.36 0 0 Z " fill="#4983B6" transform="translate(110,110)"/>
<path d="M0 0 C2.97 0 5.94 0 9 0 C9 0.99 9 1.98 9 3 C2.25 2.25 2.25 2.25 0 0 Z " fill="#203C60" transform="translate(230,134)"/>
<path d="M0 0 C0 0.33 0 0.66 0 1 C-1.0725 1.28875 -2.145 1.5775 -3.25 1.875 C-6.09400364 2.72820109 -8.43508983 3.5636503 -11 5 C-8.45499142 -0.63537615 -5.97208347 -0.11059414 0 0 Z " fill="#263A56" transform="translate(256,119)"/>
<path d="M0 0 C2.5 1.1875 2.5 1.1875 5 3 C5.3125 5.6875 5.3125 5.6875 5 8 C4.38125 7.360625 3.7625 6.72125 3.125 6.0625 C1.17402388 3.96116416 1.17402388 3.96116416 -1 3 C-0.67 2.01 -0.34 1.02 0 0 Z " fill="#4C617D" transform="translate(225,123)"/>
<path d="M0 0 C1.65 0 3.3 0 5 0 C4.67 0.99 4.34 1.98 4 3 C2.02 3.33 0.04 3.66 -2 4 C-1.34 2.68 -0.68 1.36 0 0 Z " fill="#244062" transform="translate(192,119)"/>
<path d="" fill="#C7CAD3" transform="translate(0,0)"/>
</svg>
